# xmcd
#
# Track frame offsets:
#	150
#	18947
#	35037
#	50587
#	65357
#	81960
#	96902
#
# Disc length: 1535 seconds
#
# Revision: 0
# Processed by: cddbd v1.5.1PL0 Copyright (c) Steve Scherf et al.
# Submitted via: dBpowerAMP V4.0
#
DISCID=5705fd07
DTITLE=Josh Turner - Long Black Train (Alternate Version)
DYEAR=2004
DGENRE=Christian Country
TTITLE0=Long Black Train
TTITLE1=In My Dreams
TTITLE2=What It Ain't
TTITLE3=I Had One One Time
TTITLE4=Backwoods Boy
TTITLE5=Unburn All Our Bridges
TTITLE6=She'll Go On You
EXTD=
EXTT0=
EXTT1=
EXTT2=
EXTT3=
EXTT4=
EXTT5=
EXTT6=
PLAYORDER=
